<svg width="14" height="14" viewBox="0 0 14 14" fill="none" xmlns="http://www.w3.org/2000/svg">
<path d="M12.6666 4.00668L8.29992 0.513346C7.44659 -0.166654 6.11326 -0.173321 5.26659 0.506679L0.899923 4.00668C0.273257 4.50668 -0.106743 5.50668 0.0265899 6.29334L0.86659 11.32C1.05992 12.4467 2.10659 13.3333 3.24659 13.3333H10.3133C11.4399 13.3333 12.5066 12.4267 12.6999 11.3133L13.5399 6.28668C13.6599 5.50668 13.2799 4.50668 12.6666 4.00668ZM7.27992 10.6667C7.27992 10.94 7.05326 11.1667 6.77992 11.1667C6.50659 11.1667 6.27992 10.94 6.27992 10.6667V8.66668C6.27992 8.39334 6.50659 8.16668 6.77992 8.16668C7.05326 8.16668 7.27992 8.39334 7.27992 8.66668V10.6667Z" fill="white"/>
</svg>
