<svg width="24" height="24" viewBox="0 0 24 24" fill="none" xmlns="http://www.w3.org/2000/svg">
<path d="M2.75 9.14969C5.06 5.51969 8.44 3.42969 12 3.42969C13.78 3.42969 15.51 3.94969 17.09 4.91969C18.67 5.89969 20.09 7.32969 21.25 9.14969C22.25 10.7197 22.25 13.2697 21.25 14.8397C18.94 18.4797 15.56 20.5597 12 20.5597C10.22 20.5597 8.49 20.0397 6.91 19.0697C5.33 18.0897 3.91 16.6597 2.75 14.8397C1.75 13.2797 1.75 10.7197 2.75 9.14969ZM12 16.0397C14.24 16.0397 16.04 14.2297 16.04 11.9997C16.04 9.76969 14.24 7.95969 12 7.95969C9.76 7.95969 7.96 9.76969 7.96 11.9997C7.96 14.2297 9.76 16.0397 12 16.0397Z" fill="#C9CECF"/>
<path d="M12 9.13965C13.57 9.13965 14.85 10.4196 14.85 11.9996C14.85 13.5696 13.57 14.8496 12 14.8496C10.43 14.8496 9.13998 13.5696 9.13998 11.9996C9.13998 10.4296 10.43 9.13965 12 9.13965Z" fill="#C9CECF"/>
</svg>
