<svg width="44" height="31" viewBox="0 0 44 31" fill="none" xmlns="http://www.w3.org/2000/svg">
<rect width="44" height="31" rx="4" fill="white" fill-opacity="0.1"/>
<rect x="0.5" y="0.5" width="43" height="30" rx="3.5" stroke="#CACECE" stroke-opacity="0.4"/>
<path d="M29.3001 12.5914C29.3001 12.7498 29.2418 12.9081 29.1168 13.0331C28.8751 13.2748 28.4751 13.2748 28.2334 13.0331L24.0584 8.85811C23.8168 8.61644 23.8168 8.21644 24.0584 7.97477C24.3001 7.7331 24.7001 7.7331 24.9418 7.97477L29.1168 12.1498C29.2334 12.2748 29.3001 12.4331 29.3001 12.5914Z" fill="#949D9E"/>
<path d="M25.1167 8.41683V22.5835C25.1167 22.9252 24.8334 23.2085 24.4917 23.2085C24.15 23.2085 23.8667 22.9252 23.8667 22.5835V8.41683C23.8667 8.07516 24.15 7.79183 24.4917 7.79183C24.8334 7.79183 25.1167 8.07516 25.1167 8.41683Z" fill="#949D9E"/>
<path d="M20.1334 22.5831C20.1334 22.7415 20.075 22.8998 19.95 23.0248C19.7084 23.2665 19.3084 23.2665 19.0667 23.0248L14.8917 18.8498C14.65 18.6081 14.65 18.2081 14.8917 17.9665C15.1334 17.7248 15.5334 17.7248 15.775 17.9665L19.95 22.1415C20.0667 22.2581 20.1334 22.4248 20.1334 22.5831Z" fill="#949D9E"/>
<path d="M20.1333 8.41683V22.5835C20.1333 22.9252 19.85 23.2085 19.5083 23.2085C19.1666 23.2085 18.8833 22.9252 18.8833 22.5835V8.41683C18.8833 8.07516 19.1666 7.79183 19.5083 7.79183C19.85 7.79183 20.1333 8.07516 20.1333 8.41683Z" fill="#949D9E"/>
</svg>
