<svg width="20" height="20" viewBox="0 0 20 20" fill="none" xmlns="http://www.w3.org/2000/svg">
<path d="M9.99996 18.0423C9.74163 18.0423 9.49163 18.009 9.28329 17.934C6.09996 16.8423 1.04163 12.9673 1.04163 7.24232C1.04163 4.32565 3.39996 1.95898 6.29996 1.95898C7.70829 1.95898 9.02496 2.50898 9.99996 3.49232C10.975 2.50898 12.2916 1.95898 13.7 1.95898C16.6 1.95898 18.9583 4.33398 18.9583 7.24232C18.9583 12.9757 13.9 16.8423 10.7166 17.934C10.5083 18.009 10.2583 18.0423 9.99996 18.0423ZM6.29996 3.20898C4.09163 3.20898 2.29163 5.01732 2.29163 7.24232C2.29163 12.934 7.76663 16.1007 9.69163 16.759C9.84163 16.809 10.1666 16.809 10.3166 16.759C12.2333 16.1007 17.7166 12.9423 17.7166 7.24232C17.7166 5.01732 15.9166 3.20898 13.7083 3.20898C12.4416 3.20898 11.2666 3.80065 10.5083 4.82565C10.275 5.14232 9.74163 5.14232 9.50829 4.82565C8.73329 3.79232 7.56663 3.20898 6.29996 3.20898Z" fill="#1B5E37"/>
</svg>
