<svg width="15" height="16" viewBox="0 0 15 16" fill="none" xmlns="http://www.w3.org/2000/svg">
<path d="M7.32776 15.3C5.38609 15.3 3.44442 14.9917 1.60276 14.375C0.902755 14.1333 0.369422 13.6417 0.136089 13C-0.105578 12.3583 -0.0222445 11.65 0.361089 11.0167L1.31942 9.425C1.51942 9.09167 1.70276 8.425 1.70276 8.03333V5.625C1.70276 2.525 4.22776 0 7.32776 0C10.4278 0 12.9528 2.525 12.9528 5.625V8.03333C12.9528 8.41667 13.1361 9.09167 13.3361 9.43333L14.2861 11.0167C14.6444 11.6167 14.7111 12.3417 14.4694 13C14.2278 13.6583 13.7028 14.1583 13.0444 14.375C11.2111 14.9917 9.26942 15.3 7.32776 15.3ZM7.32776 1.25C4.91942 1.25 2.95276 3.20833 2.95276 5.625V8.03333C2.95276 8.64167 2.70276 9.54167 2.39442 10.0667L1.43609 11.6583C1.25276 11.9667 1.20276 12.2917 1.31109 12.5667C1.41109 12.85 1.66109 13.0667 2.00276 13.1833C5.48609 14.35 9.17776 14.35 12.6611 13.1833C12.9611 13.0833 13.1944 12.8583 13.3028 12.5583C13.4111 12.2583 13.3861 11.9333 13.2194 11.6583L12.2611 10.0667C11.9444 9.525 11.7028 8.63333 11.7028 8.025V5.625C11.7028 3.20833 9.74442 1.25 7.32776 1.25Z" fill="#1B5E37"/>
</svg>
