<svg width="32" height="32" viewBox="0 0 32 32" fill="none" xmlns="http://www.w3.org/2000/svg">
<path d="M15.9878 31.9931C15.8825 31.9931 15.7758 31.9678 15.6798 31.9171L0.360064 23.9186C0.140105 23.804 0.00146484 23.576 0.00146484 23.3281V8.33092C0.00146484 8.10029 0.121442 7.88567 0.317405 7.76436C0.513368 7.64305 0.759988 7.63238 0.965283 7.73503L16.2851 15.4002C16.5103 15.5136 16.653 15.7442 16.653 15.9961V31.3266C16.653 31.5599 16.5317 31.7758 16.3317 31.8971C16.2277 31.9611 16.1078 31.9931 15.9878 31.9931ZM1.33455 22.9242L15.3212 30.2268V16.4081L1.33455 9.40938V22.9242Z" fill="#1B5E37"/>
<path d="M16.0088 31.9931C15.8888 31.9931 15.7689 31.9611 15.6636 31.8971C15.4649 31.7758 15.3423 31.5599 15.3423 31.3266V15.9961C15.3423 15.7442 15.4849 15.5136 15.7102 15.4003L31.03 7.73504C31.2339 7.63106 31.4819 7.64173 31.6779 7.76437C31.8752 7.88568 31.9951 8.10031 31.9951 8.33093V23.3281C31.9951 23.576 31.8565 23.804 31.6365 23.9186L16.3168 31.9171C16.2208 31.9678 16.1141 31.9931 16.0088 31.9931ZM16.6754 16.4081V30.2268L30.6621 22.9242V9.40939L16.6754 16.4081ZM31.3286 23.3281H31.3419H31.3286Z" fill="#1B5E37"/>
<path d="M0.667926 8.99763C0.422639 8.99763 0.188017 8.86299 0.0707057 8.6297C-0.0945964 8.30043 0.0400448 7.90051 0.369316 7.7352L15.7104 0.0699868C15.8984 -0.0233289 16.1197 -0.0233289 16.3063 0.0699868L31.6261 7.7352C31.9553 7.90051 32.0886 8.30043 31.9247 8.6297C31.7594 8.95897 31.3608 9.09095 31.0302 8.92831L16.009 1.41107L0.966536 8.92698C0.870554 8.97497 0.76924 8.99763 0.667926 8.99763Z" fill="#1B5E37"/>
<path d="M23.997 19.9955C23.6291 19.9955 23.3305 19.6969 23.3305 19.329V12.4089L8.37863 4.92768C8.04936 4.76371 7.91605 4.36246 8.08135 4.03319C8.24666 3.70391 8.64658 3.57194 8.97585 3.73458L24.2956 11.3998C24.5209 11.5144 24.6636 11.7451 24.6636 11.997V19.329C24.6636 19.6969 24.3649 19.9955 23.997 19.9955Z" fill="#1B5E37"/>
</svg>
