<svg width="26" height="38" viewBox="0 0 26 38" fill="none" xmlns="http://www.w3.org/2000/svg">
<path d="M25.9116 24.728C25.9116 24.7835 25.9107 24.8399 25.9107 24.8963C25.9045 25.3763 25.8731 25.8509 25.8177 26.3184C25.6792 27.4843 25.3913 28.6073 24.9721 29.6641C24.9524 29.7133 24.9328 29.7625 24.9122 29.8118C24.8916 29.8601 24.871 29.9094 24.8514 29.9586C24.8299 30.0069 24.8093 30.0562 24.7879 30.1045C24.7772 30.1278 24.7664 30.1511 24.7566 30.1753C24.7432 30.2048 24.7298 30.2344 24.7164 30.2639C24.6949 30.3114 24.6726 30.3597 24.6502 30.4081C22.857 34.2301 19.3101 37.0672 15.0157 37.7621C14.9594 37.771 14.9031 37.78 14.8468 37.788C14.6332 37.8202 14.4177 37.8463 14.2014 37.8678C13.817 37.9045 13.4282 37.9241 13.034 37.9269C5.84252 37.9691 0 32.142 0 24.9474C0 24.8319 0.00178082 24.7164 0.00445205 24.6018C0.00623288 24.5444 0.0080137 24.4871 0.0106849 24.4298C0.0124658 24.3877 0.0142466 24.3456 0.0169178 24.3035C0.0285822 24.0599 0.0481712 23.8181 0.0750616 23.5781C0.086726 23.4697 0.100082 23.3613 0.114418 23.2539C0.140329 23.0641 0.170692 22.8751 0.204705 22.687C0.21539 22.6324 0.225274 22.5769 0.236849 22.5214C0.256527 22.4193 0.277986 22.3172 0.300336 22.2161C0.31013 22.1731 0.320014 22.1301 0.330699 22.0871C0.419205 21.7082 0.52561 21.3357 0.648041 20.9695C0.665048 20.9175 0.682945 20.8655 0.701644 20.8136C0.71598 20.7706 0.731116 20.7285 0.747233 20.6855C0.779377 20.5951 0.81339 20.5055 0.848206 20.416C0.864322 20.373 0.88124 20.3309 0.898247 20.2888C0.925938 20.2189 0.954521 20.1491 0.984082 20.0792C1.00732 20.0237 1.03145 19.9682 1.05558 19.9127C1.07971 19.8572 1.10384 19.8025 1.12886 19.7479C1.15745 19.6852 1.18701 19.6226 1.21559 19.5608C1.23794 19.5142 1.26029 19.4677 1.28353 19.4211C1.31033 19.3665 1.33713 19.3127 1.36402 19.259C1.39171 19.2053 1.41851 19.1515 1.44719 19.0987C1.47488 19.045 1.50257 18.9921 1.53213 18.9393C1.56071 18.8865 1.58938 18.8336 1.61886 18.7817C1.64477 18.7351 1.67157 18.6886 1.69837 18.6429C1.85571 18.3689 2.02373 18.1011 2.20163 17.8396C2.22932 17.7975 2.2579 17.7554 2.28747 17.7143C2.83632 16.9253 3.47011 16.1982 4.1754 15.5445C4.43825 15.3017 4.71081 15.0689 4.99245 14.8468C9.33409 11.4241 11.3016 5.79042 10.0448 0.401198C9.96619 0.0635693 10.2728 -0.0340173 10.4605 0.00987C10.4694 0.0125461 10.4784 0.0152221 10.4873 0.0178982C10.4917 0.0196822 10.4971 0.0214662 10.5016 0.0223582C10.5624 0.0429638 10.6231 0.0626775 10.6831 0.0841752C10.8404 0.137875 10.9968 0.195231 11.1515 0.254283C11.1962 0.27132 11.2409 0.28925 11.2847 0.306199C11.3383 0.327696 11.392 0.349194 11.4447 0.370691C11.4894 0.388621 11.5332 0.406551 11.577 0.425283C11.628 0.446781 11.678 0.468278 11.7281 0.489776C11.7844 0.51395 11.8408 0.539015 11.897 0.564081C12.0258 0.621438 12.1536 0.68049 12.2805 0.741415C12.3368 0.768264 12.3932 0.796006 12.4486 0.823837C12.5559 0.876645 12.6631 0.931325 12.7695 0.986809C12.824 1.01544 12.8777 1.04318 12.9313 1.0728C12.9965 1.10777 13.0609 1.14264 13.1252 1.1794C13.5105 1.3925 13.8885 1.62264 14.2605 1.86803C14.3257 1.91103 14.3901 1.95402 14.4545 1.99791C14.9622 2.34268 15.4574 2.71697 15.9384 3.11641C15.9983 3.16565 16.0572 3.21579 16.1163 3.26601C16.3048 3.4263 16.4917 3.59017 16.6759 3.75858C16.734 3.81228 16.7921 3.86607 16.8502 3.91977C17.1497 4.19825 17.4429 4.48754 17.7308 4.78663C17.7799 4.83855 17.8299 4.89055 17.8792 4.94336C17.9418 5.00963 18.0043 5.07591 18.066 5.14308C18.1143 5.19589 18.1625 5.24879 18.2108 5.30159C18.2662 5.36252 18.3207 5.42246 18.3752 5.48428C18.436 5.55234 18.4959 5.6204 18.5558 5.68935C18.5978 5.7377 18.6399 5.78694 18.6819 5.83529C18.7409 5.90424 18.799 5.97319 18.8571 6.04215C18.9098 6.10575 18.9626 6.16846 19.0145 6.23197C19.0672 6.29557 19.12 6.36006 19.1709 6.42447C19.2201 6.4845 19.2683 6.54533 19.3157 6.60626C19.3469 6.6439 19.3765 6.68146 19.406 6.71999C19.448 6.77191 19.4891 6.8248 19.5293 6.8785C19.5633 6.92239 19.5972 6.96628 19.6303 7.01017C19.7312 7.14272 19.8305 7.27617 19.9297 7.4105C20.0298 7.54752 20.1291 7.68453 20.2265 7.82333C20.2739 7.88961 20.3194 7.95588 20.3659 8.02216C20.4133 8.09022 20.4607 8.16007 20.508 8.22902C20.5554 8.29797 20.6019 8.36782 20.6484 8.43766C20.6859 8.49225 20.7225 8.54783 20.7592 8.60331C21.4618 9.6699 22.1019 10.7929 22.6731 11.9508C22.7401 12.0869 22.8063 12.223 22.8715 12.36C23.1933 13.0344 23.491 13.7195 23.7645 14.4117C23.7949 14.4887 23.8253 14.5657 23.8548 14.6427C23.8852 14.7197 23.9147 14.7968 23.9433 14.8746C23.9728 14.9516 24.0015 15.0287 24.0301 15.1066C24.0586 15.1836 24.0873 15.2606 24.115 15.3385C24.2026 15.5812 24.2876 15.8247 24.3689 16.0683C24.3912 16.1364 24.4144 16.2036 24.4359 16.2716C24.4618 16.3495 24.4877 16.4275 24.5119 16.5053C24.5369 16.5841 24.5619 16.6621 24.586 16.74C24.6522 16.9531 24.7157 17.1662 24.7773 17.3793C24.7889 17.4206 24.8005 17.4609 24.8122 17.5011C24.8292 17.5603 24.8452 17.6193 24.8622 17.6784C24.8837 17.7572 24.9052 17.8361 24.9266 17.9139C24.9472 17.9918 24.9677 18.0707 24.9883 18.1485C25.0107 18.231 25.0312 18.3133 25.0518 18.3957C25.0876 18.5381 25.1224 18.6804 25.1573 18.8229C25.1779 18.9116 25.1985 19.0002 25.219 19.0889C25.2529 19.2412 25.287 19.3925 25.3191 19.5447C25.32 19.5492 25.3209 19.5536 25.3218 19.5582C25.3548 19.714 25.3862 19.869 25.4165 20.0238C25.5229 20.571 25.6132 21.1164 25.6856 21.6573C25.6963 21.7352 25.7062 21.8122 25.716 21.8892C25.7195 21.9196 25.7231 21.9493 25.7266 21.9797C25.7445 22.1211 25.7607 22.2617 25.7749 22.4023C25.7838 22.4811 25.7919 22.5599 25.799 22.6378C25.8143 22.7945 25.8285 22.9513 25.8402 23.1062C25.8517 23.2576 25.8625 23.4089 25.8714 23.5593C25.8768 23.6498 25.8821 23.7402 25.8858 23.8298C25.8893 23.897 25.892 23.965 25.8956 24.0322V24.0367C25.8982 24.1101 25.9009 24.1835 25.9036 24.2561V24.2749C25.9053 24.3143 25.9062 24.3537 25.9071 24.3931C25.908 24.4262 25.9089 24.4594 25.9089 24.4925C25.9107 24.5712 25.9116 24.6501 25.9116 24.728Z" fill="url(#paint0_radial_68_1668)"/>
<defs>
<radialGradient id="paint0_radial_68_1668" cx="0" cy="0" r="1" gradientUnits="userSpaceOnUse" gradientTransform="translate(9.51361 11.9085) scale(25.0958 25.1411)">
<stop stop-color="#F9C6A0" stop-opacity="0"/>
<stop offset="0.014" stop-color="#F9C69E" stop-opacity="0"/>
<stop offset="0.02" stop-color="#FAC797" stop-opacity="0"/>
<stop offset="0.023" stop-color="#FAC88C" stop-opacity="0"/>
<stop offset="0.026" stop-color="#FBCA7B" stop-opacity="0"/>
<stop offset="0.029" stop-color="#FDCC65" stop-opacity="0"/>
<stop offset="0.031" stop-color="#FECE4A" stop-opacity="0"/>
<stop offset="0.032" stop-color="#FFCF42" stop-opacity="0"/>
<stop offset="0.408" stop-color="#FFCD42" stop-opacity="0.389"/>
<stop offset="0.543" stop-color="#FFC640" stop-opacity="0.529"/>
<stop offset="0.64" stop-color="#FFBB3E" stop-opacity="0.628"/>
<stop offset="0.718" stop-color="#FFAA3B" stop-opacity="0.709"/>
<stop offset="0.785" stop-color="#FF9437" stop-opacity="0.778"/>
<stop offset="0.845" stop-color="#FF7832" stop-opacity="0.839"/>
<stop offset="0.898" stop-color="#FF582C" stop-opacity="0.895"/>
<stop offset="0.947" stop-color="#FF3225" stop-opacity="0.946"/>
<stop offset="0.991" stop-color="#FF091E" stop-opacity="0.991"/>
<stop offset="1" stop-color="#FF001C"/>
</radialGradient>
</defs>
</svg>
